<?xml version="1.0" encoding="utf-8"?>
<!-- Generator: Adobe Illustrator 27.5.0, SVG Export Plug-In . SVG Version: 6.00 Build 0)  -->
<svg version="1.1" id="Layer_1_1_" xmlns="http://www.w3.org/2000/svg" xmlns:xlink="http://www.w3.org/1999/xlink" x="0px" y="0px"
	 viewBox="0 0 450 464.521" style="enable-background:new 0 0 450 464.521;" xml:space="preserve">
<g>
	<rect x="0" y="0" style="fill:#FFFFFF;" width="450" height="464.521"/>
	<g>
		
			<linearGradient id="SVGID_1_" gradientUnits="userSpaceOnUse" x1="4426.1479" y1="379.2593" x2="4330.8804" y2="269.0481" gradientTransform="matrix(-1 0 0 1 4670.916 0)">
			<stop  offset="0.2946" style="stop-color:#E38FDF"/>
			<stop  offset="0.8784" style="stop-color:#AD78E9"/>
		</linearGradient>
		<path style="fill:url(#SVGID_1_);" d="M205.115,308.15l103.996,60.042c27.366,15.8,68.763,17.516,92.462,3.833l6.689-3.862
			c23.7-13.683,20.728-37.584-6.638-53.383l-103.996-60.042c-27.366-15.8-68.763-17.516-92.462-3.833l-6.689,3.862
			C174.777,268.45,177.749,292.351,205.115,308.15z"/>
	</g>
	<path style="fill:#CCCCCC;" d="M247.765,296.514c-5.189,2.996-5.217,7.852-0.063,10.847l77.94,45.294
		c4.67,2.714,12.264,2.714,16.965,0l31.663-18.281c4.701-2.714,4.725-7.112,0.055-9.827l-78.818-45.804
		c-4.67-2.714-12.264-2.714-16.965,0L247.765,296.514z"/>
	<g>
		<g>
			<g style="enable-background:new    ;">
				
					<linearGradient id="SVGID_00000118370999823973037980000008350341659810584231_" gradientUnits="userSpaceOnUse" x1="1786.4315" y1="234.2629" x2="1920.6628" y2="234.2629" gradientTransform="matrix(-1 0 0 1 2164.5181 0)">
					<stop  offset="0" style="stop-color:#D97A00"/>
					<stop  offset="0.0107" style="stop-color:#DC7E00"/>
					<stop  offset="0.0669" style="stop-color:#E98B00"/>
					<stop  offset="0.1382" style="stop-color:#F09300"/>
					<stop  offset="0.2752" style="stop-color:#F29500"/>
					<stop  offset="0.2924" style="stop-color:#F49C00"/>
					<stop  offset="0.3562" style="stop-color:#FCB300"/>
					<stop  offset="0.3968" style="stop-color:#FFBB00"/>
					<stop  offset="0.918" style="stop-color:#FFBB00"/>
					<stop  offset="0.9583" style="stop-color:#FEB800"/>
					<stop  offset="0.9934" style="stop-color:#FAAD00"/>
					<stop  offset="1" style="stop-color:#F9AA00"/>
				</linearGradient>
				<path style="fill:url(#SVGID_00000118370999823973037980000008350341659810584231_);" d="M247.702,164.837L247.702,164.837
					l77.941,45.293c4.669,2.714,12.263,2.714,16.965,0l31.663-18.28c2.366-1.366,3.547-3.158,3.541-4.947l0.275,96.905
					c0.006,1.789-1.176,3.583-3.54,4.949l-31.664,18.28c-4.701,2.714-12.295,2.714-16.965,0l-77.94-45.295l-0.003-0.814l0.003,0.814
					c-2.56-1.487-3.842-3.434-3.847-5.385l-0.275-96.906C243.861,161.403,245.142,163.349,247.702,164.837z"/>
				<g>
					
						<linearGradient id="SVGID_00000045603272580711658700000002735175126400519608_" gradientUnits="userSpaceOnUse" x1="1782.8147" y1="244.1435" x2="1884.1469" y2="142.8113" gradientTransform="matrix(-1 0 0 1 2164.5181 0)">
						<stop  offset="0" style="stop-color:#D97A00"/>
						<stop  offset="0.0132" style="stop-color:#DC7E00"/>
						<stop  offset="0.0824" style="stop-color:#E98B00"/>
						<stop  offset="0.1702" style="stop-color:#F09300"/>
						<stop  offset="0.3389" style="stop-color:#F29500"/>
						<stop  offset="0.3417" style="stop-color:#F29600"/>
						<stop  offset="0.4096" style="stop-color:#F8A700"/>
						<stop  offset="0.4939" style="stop-color:#FCB200"/>
						<stop  offset="0.6125" style="stop-color:#FEB900"/>
						<stop  offset="0.9417" style="stop-color:#FFBB00"/>
					</linearGradient>
					<path style="fill:url(#SVGID_00000045603272580711658700000002735175126400519608_);" d="M247.765,153.99
						c-5.189,2.996-5.217,7.852-0.063,10.847l77.94,45.294c4.67,2.714,12.264,2.714,16.965,0l31.663-18.281
						c4.701-2.714,4.725-7.113,0.055-9.826l-78.818-45.804c-4.67-2.714-12.264-2.714-16.965,0L247.765,153.99z"/>
					<path style="fill:#FFC800;" d="M333.275,204.695c2.584,0,5.076-0.583,6.837-1.6l30.522-17.622
						c1.292-0.746,2.063-1.65,2.064-2.419c0.001-0.757-0.753-1.648-2.018-2.382l-75.977-44.153
						c-1.746-1.015-4.228-1.597-6.809-1.597c-2.584,0-5.076,0.583-6.838,1.6l-29.669,17.129c-1.514,0.874-2.418,1.963-2.419,2.913
						c-0.001,0.951,0.861,1.997,2.366,2.872l75.131,43.661C328.211,204.113,330.693,204.695,333.275,204.695z"/>
					<path style="fill:#693A00;" d="M326.159,188.088c3.647,2.099,8.773,2.816,13.45,2.144c2.457-0.346,4.773-1.081,6.699-2.188
						c0.518-0.301,0.985-0.608,1.408-0.941v-0.013c0.186-0.134,0.352-0.275,0.518-0.422c1.51-1.344,2.265-2.879,2.284-4.421v-0.051
						c0-2.092-1.382-4.191-4.146-5.784c-1.926-1.12-4.281-1.843-6.763-2.176c-4.652-0.621-9.752,0.115-13.386,2.214
						C320.644,179.667,320.612,184.876,326.159,188.088z"/>
					
						<linearGradient id="SVGID_00000129892786712629559340000012685619450124064392_" gradientUnits="userSpaceOnUse" x1="322.0185" y1="181.1317" x2="350.5193" y2="181.1317">
						<stop  offset="0.2963" style="stop-color:#C46E00"/>
						<stop  offset="0.4047" style="stop-color:#D07800"/>
						<stop  offset="0.6763" style="stop-color:#E98D00"/>
						<stop  offset="0.8413" style="stop-color:#F29500"/>
					</linearGradient>
					<path style="fill:url(#SVGID_00000129892786712629559340000012685619450124064392_);" d="M346.373,176.41
						c-1.926-1.12-4.281-1.843-6.763-2.176c-4.652-0.621-9.752,0.115-13.386,2.214c-5.579,3.219-5.612,8.427-0.064,11.639
						c0.097,0.056,0.206,0.1,0.306,0.154c3.618-1.998,8.591-2.699,13.145-2.092c2.355,0.316,4.582,0.994,6.45,2.018
						c0.081-0.044,0.17-0.08,0.249-0.125c0.518-0.301,0.985-0.608,1.408-0.941v-0.013c0.186-0.134,0.352-0.275,0.518-0.422
						c1.51-1.344,2.265-2.879,2.285-4.421v-0.051C350.519,180.102,349.137,178.003,346.373,176.41z"/>
				</g>
			</g>
		</g>
		<g style="enable-background:new    ;">
			<g>
				<polygon style="fill:#C46E00;" points="283.321,264.792 283.336,259.623 290.396,255.52 290.381,260.689 				"/>
			</g>
			<g>
				<path style="fill:#C46E00;" d="M290.384,255.516c-2.104,1.235-4.942,2.872-7.046,4.107
					c-5.743-3.573-10.685-10.518-14.091-19.367l8.08-1.736C280.634,246.234,285.174,252.277,290.384,255.516z"/>
			</g>
			<g>
				<path style="fill:#C46E00;" d="M298.564,265.434c-1.837,0.234-3.94,0-6.144-0.634l-0.033,5.242l-9.082-5.242l7.079-4.107
					l4.574,2.638L298.564,265.434z"/>
			</g>
			<g>
				<path style="fill:#693A00;" d="M294.825,223.16c0.934,0.534,2.036,1.202,3.305,2.037c0.301,0.234,0.635,0.434,0.968,0.668
					l-2.838,0.434c-0.435-1.035-1.002-2.07-1.703-2.972c-0.134-0.2-0.301-0.401-0.435-0.601
					C294.323,222.86,294.557,222.993,294.825,223.16z"/>
				<path style="fill:#693A00;" d="M281.034,199.586c-0.201,0.134-0.368,0.234-0.501,0.367c0.134-0.1,0.301-0.234,0.401-0.301
					L281.034,199.586z"/>
				<path style="fill:#693A00;" d="M305.81,256.485c-0.133,2.003-0.601,3.606-1.269,4.908c-0.033,0-0.033,0.033-0.033,0.033h-0.401
					c-1.469,0-3.038-0.267-4.641-0.734v4.575c-0.301,0.067-0.601,0.134-0.902,0.167l-3.607-2.104l-4.574-2.638v-5.176
					c-5.209-3.239-9.75-9.283-13.057-16.996l0.935-0.2c0.702,1.536,1.336,2.705,1.97,3.64l0.534,0.768
					c1.97,2.571,4.876,5.409,7.981,7.212c1.101,0.601,2.204,1.102,3.272,1.436c0.567-0.033,1.035-0.167,1.402-0.401l6.812-3.973
					l0.267-0.133c0.802-0.468,1.269-1.336,1.269-2.438c0.067-1.97-0.634-3.873-1.936-5.543c-0.201-0.334-0.435-0.634-0.735-0.835
					c-0.3-0.234-0.634-0.434-0.968-0.634c-0.501-0.301-1.068-0.568-1.736-0.902c-0.634-0.334-1.335-0.701-2.17-1.169
					c-1.77-1.035-4.074-2.571-7.279-5.343c-5.443-5.543-9.85-12.889-9.717-22.239c0.067-1.002,0.166-1.903,0.367-2.705
					c0.033-0.234,0.1-0.434,0.167-0.634c0.2-0.768,0.467-1.436,0.801-2.037c1.536,0,3.205,0.267,4.942,0.835v-4.675
					c0,0,0,0,0.033-0.034h0.033l4.007,2.338l5.009,2.872v4.675c4.341,3.172,7.58,6.979,10.852,13.791h-0.1
					c-0.434-1.035-1.035-2.037-1.703-2.972c-1.802-2.538-4.641-4.975-7.145-6.411c-1.335-0.768-2.538-1.269-3.473-1.269
					l-0.401,0.033h-0.367l-0.668,0.367l-0.067,0.033c-0.033,0-0.067,0-0.1,0.033c-0.033,0.033-0.033,0.033-0.067,0.067l-0.067,0.067
					c-0.067,0.033-0.134,0.067-0.167,0.134c-0.067,0.067-0.133,0.133-0.2,0.234v0.033l-0.101,0.1
					c-0.033,0.033-0.033,0.033-0.033,0.067c-0.033,0.033-0.067,0.1-0.067,0.167c-0.033,0.033-0.067,0.1-0.1,0.167
					c-0.201,0.367-0.267,0.768-0.267,1.236c-0.034,0.668,0.033,1.336,0.201,2.003c0.067,0.301,0.134,0.601,0.234,0.868
					c0.099,0.301,0.201,0.568,0.333,0.835c-0.567-0.401-1.136-0.768-1.67-1.069c-0.701-0.401-1.402-0.734-2.003-0.968
					c-0.535-0.2-1.035-0.334-1.469-0.334l-0.401,0.033l-0.401,0.034c-0.201,0.067-0.4,0.167-0.567,0.267
					c-0.868,0.501-1.335,1.336-1.335,2.438c-0.067,2.304,0.835,4.608,2.671,6.411c2.104,1.703,4.341,2.504,8.582,5.509
					C300.033,236.717,306.344,244.397,305.81,256.485z"/>
			</g>
			<g>
				<path style="fill:#FFE3CA;" d="M299.466,260.692v4.575c-0.301,0.067-0.601,0.134-0.902,0.167c-1.837,0.234-3.94,0-6.144-0.634
					l2.538-1.469L299.466,260.692z"/>
			</g>
			<g>
				<path style="fill:#C46E00;" d="M304.107,261.427c0.134,0,0.301,0,0.434-0.033c-0.033,0-0.033,0.033-0.033,0.033
					c-0.701,1.336-1.669,2.304-2.805,2.972c-0.701,0.401-1.436,0.668-2.237,0.868c-0.301,0.067-0.601,0.134-0.902,0.167
					c-1.837,0.234-3.94,0-6.144-0.634l2.538-1.469l4.508-2.638C301.069,261.159,302.638,261.427,304.107,261.427z"/>
			</g>
			<path style="fill:#C46E00;" d="M299.817,238.9c-0.191-0.331-0.425-0.638-0.702-0.847c-0.314-0.229-0.634-0.432-0.97-0.625
				c-0.53-0.306-1.098-0.589-1.738-0.913c-0.641-0.323-1.356-0.69-2.182-1.167c-1.786-1.031-4.091-2.58-7.281-5.327l-7.06,4.103
				c3.19,2.747,5.495,4.296,7.281,5.327c0.827,0.477,1.541,0.844,2.182,1.167c0.64,0.324,1.208,0.607,1.738,0.913
				c0.336,0.194,0.656,0.396,0.97,0.625c0.277,0.209,0.511,0.516,0.702,0.847c1.32,1.645,2.019,3.57,1.949,5.542
				c-0.003,1.093-0.454,1.961-1.268,2.433c2.118-1.231,4.942-2.872,7.06-4.103c0.813-0.473,1.264-1.341,1.267-2.434
				C301.836,242.47,301.137,240.545,299.817,238.9z"/>
			<g>
				<path style="fill:#FFE3CA;" d="M289.114,217.985c-0.567-0.401-1.136-0.768-1.67-1.069c-0.701-0.401-1.402-0.734-2.003-0.968
					l2.905-1.67c-0.034,0.668,0.033,1.336,0.201,2.003c0.067,0.301,0.134,0.601,0.234,0.868
					C288.88,217.45,288.981,217.717,289.114,217.985z"/>
			</g>
			<g>
				<path style="fill:#C46E00;" d="M277.227,207.774l-3.76,2.185l3.761-2.192c0.067-1.002,0.166-1.903,0.367-2.705
					c0.033-0.234,0.1-0.434,0.167-0.634c0.2-0.768,0.467-1.436,0.801-2.037c-1.569,0.033-3.039,0.401-4.274,1.102
					c-2.336,1.368-3.905,4.071-4.107,8.375l-0.015,0.009c-0.133,9.346,4.288,16.683,9.717,22.247l7.06-4.103
					C281.515,224.457,277.094,217.119,277.227,207.774z"/>
				
					<linearGradient id="SVGID_00000138569531144974183940000002478469443541718916_" gradientUnits="userSpaceOnUse" x1="280.5324" y1="199.7697" x2="281.0338" y2="199.7697">
					<stop  offset="0.1587" style="stop-color:#F29500"/>
					<stop  offset="0.3237" style="stop-color:#E98D00"/>
					<stop  offset="0.5953" style="stop-color:#D07800"/>
					<stop  offset="0.7037" style="stop-color:#C46E00"/>
				</linearGradient>
				<path style="fill:url(#SVGID_00000138569531144974183940000002478469443541718916_);" d="M281.034,199.586
					c-0.201,0.134-0.368,0.234-0.501,0.367c0.134-0.1,0.301-0.234,0.401-0.301L281.034,199.586z"/>
			</g>
			<g>
				<path style="fill:#FFE3CA;" d="M289.682,211.841c-0.034,0.033-0.067,0.033-0.1,0.1l-0.067,0.033l-0.167,0.1l-0.067,0.067
					c-0.067,0.033-0.134,0.067-0.167,0.134c-0.067,0.067-0.133,0.133-0.2,0.234v0.033l-0.101,0.1
					c-0.033,0.033-0.033,0.033-0.033,0.067c-0.033,0.033-0.1,0.134-0.134,0.2c0,0.034-0.033,0.1-0.033,0.134
					c-0.201,0.367-0.267,0.768-0.267,1.236l-2.905,1.67c-0.535-0.2-1.035-0.334-1.469-0.334l-0.401,0.033l-0.401,0.034
					c-0.201,0.067-0.4,0.167-0.567,0.267c2.036-1.202,4.709-2.738,6.812-3.94C289.515,211.941,289.582,211.874,289.682,211.841z"/>
			</g>
			<g>
				<path style="fill:#FFE3CA;" d="M299.098,225.865l-2.838,0.434c-0.435-1.035-1.002-2.07-1.703-2.972
					c-0.134-0.2-0.301-0.401-0.435-0.601c0.201,0.134,0.435,0.267,0.702,0.434c0.934,0.534,2.036,1.202,3.305,2.037
					C298.431,225.431,298.765,225.631,299.098,225.865z"/>
			</g>
			<path style="fill:#C46E00;" d="M301.636,219.22c-1.803-2.538-4.641-4.975-7.145-6.411c-1.335-0.768-2.538-1.269-3.473-1.269
				l-0.401,0.033h-0.367c-0.201,0.067-0.401,0.167-0.567,0.267c-0.1,0.033-0.167,0.1-0.267,0.167
				c-2.103,1.202-4.776,2.738-6.812,3.94c0.167-0.1,0.367-0.2,0.568-0.267l6.111-3.54l0.067-0.067l-0.067,0.067l-6.111,3.54
				l0.401-0.033l0.401-0.033c0.434,0,0.934,0.133,1.469,0.334c0.601,0.234,1.302,0.568,2.003,0.968
				c0.534,0.301,1.102,0.668,1.67,1.069c1.803,1.302,3.607,2.938,4.975,4.708c0,0,0,0,0.034,0.033
				c0.134,0.2,0.301,0.401,0.435,0.601c0.701,0.901,1.268,1.937,1.703,2.972l1.869-1.102l5.209-3.005
				C302.905,221.157,302.304,220.155,301.636,219.22z"/>
			<g>
				<path style="fill:#FFE3CA;" d="M280.934,199.653l0.1-0.067c-0.201,0.134-0.368,0.234-0.501,0.367
					C280.666,199.853,280.833,199.72,280.934,199.653z"/>
				<path style="fill:#FFE3CA;" d="M283.572,198.517l4.007,2.338l-4.074,2.371v-4.675c0,0,0,0,0.033-0.034H283.572z"/>
			</g>
			<g>
				<polygon style="fill:#C46E00;" points="283.572,198.517 287.578,200.855 283.505,203.226 283.505,198.484 283.538,198.517 				
					"/>
			</g>
			<g>
				<path style="fill:#C46E00;" d="M304.708,225.03l-5.61,0.835l-2.838,0.434l1.869-1.102l5.209-3.005h0.1
					C303.839,223.094,304.274,224.028,304.708,225.03z"/>
			</g>
		</g>
	</g>
	<g>
		
			<linearGradient id="SVGID_00000083800814330946268270000015884389758202931348_" gradientUnits="userSpaceOnUse" x1="59.2035" y1="365.3548" x2="72.1603" y2="342.913">
			<stop  offset="0.1111" style="stop-color:#43486B"/>
			<stop  offset="0.4418" style="stop-color:#343954"/>
		</linearGradient>
		<path style="fill:url(#SVGID_00000083800814330946268270000015884389758202931348_);" d="M77.328,347.876
			c-0.004-1.274-0.458-2.174-1.188-2.598l-17.573-10.212c0.73,0.424,1.184,1.324,1.187,2.598l0.044,15.464
			c0.004,1.246-0.423,2.629-1.118,3.87c-0.738,1.317-1.778,2.474-2.929,3.138l-1.076,0.621c-0.99,0.571-1.9,0.685-2.608,0.412
			l17.573,10.212c0.708,0.274,1.618,0.16,2.608-0.412l1.076-0.621c1.151-0.664,2.191-1.821,2.928-3.138
			c0.695-1.241,1.121-2.624,1.118-3.87L77.328,347.876z"/>
		<g>
			<g>
				<g style="enable-background:new    ;">
					<g>
						<polygon style="fill:#C46E00;" points="219.801,292.933 211.366,288.031 218.205,284.082 226.64,288.984 						"/>
					</g>
					<g>
						<polygon style="fill:#FFBB00;" points="225.919,280.041 217.484,275.139 218.178,274.735 226.613,279.637 						"/>
					</g>
					<g>
						<polygon style="fill:#FFBB00;" points="226.613,279.637 218.178,274.735 218.166,270.502 226.601,275.404 						"/>
					</g>
					<g>
						<polygon style="fill:#C46E00;" points="219.782,286.355 211.347,281.453 217.639,277.821 226.074,282.723 						"/>
					</g>
					<g>
						<defs>
							<path id="SVGID_00000119829245940618325560000012698160332365296769_" d="M201.561,291.896l8.435,4.902
								c0.189,0.11,0.297,0.3,0.286,0.594l-8.435-4.902C201.858,292.197,201.75,292.006,201.561,291.896z"/>
						</defs>
						<use xlink:href="#SVGID_00000119829245940618325560000012698160332365296769_"  style="overflow:visible;fill:#FFBB00;"/>
						<clipPath id="SVGID_00000029007319118201398660000005011617516100699786_">
							<use xlink:href="#SVGID_00000119829245940618325560000012698160332365296769_"  style="overflow:visible;"/>
						</clipPath>
						<g style="clip-path:url(#SVGID_00000029007319118201398660000005011617516100699786_);">
							<path style="fill:#C46E00;" d="M210.282,297.392l-8.435-4.902c0.011-0.293-0.097-0.484-0.286-0.593l8.435,4.902
								C210.185,296.908,210.293,297.098,210.282,297.392L210.282,297.392z"/>
						</g>
					</g>
					<g>
						<polygon style="fill:#C46E00;" points="215.843,299.483 207.408,294.582 207.361,278.005 215.796,282.907 						"/>
					</g>
					<g>
						<defs>
							<path id="SVGID_00000178912059839924376630000003228125212491339160_" d="M205.409,300.127l-8.435-4.902
								c0.83,0.482,2.042,0.261,3.05-0.321c0.983-0.568,1.772-1.479,1.822-2.415l8.435,4.902c-0.05,0.936-0.839,1.847-1.822,2.415
								C207.451,300.388,206.24,300.609,205.409,300.127z"/>
						</defs>
						<use xlink:href="#SVGID_00000178912059839924376630000003228125212491339160_"  style="overflow:visible;fill:#FFBB00;"/>
						<clipPath id="SVGID_00000144337199666230850840000004601317262516162483_">
							<use xlink:href="#SVGID_00000178912059839924376630000003228125212491339160_"  style="overflow:visible;"/>
						</clipPath>
						<g style="clip-path:url(#SVGID_00000144337199666230850840000004601317262516162483_);">
							<path style="fill:#C46E00;" d="M205.409,300.127l-8.435-4.902c0.83,0.482,2.042,0.261,3.05-0.321
								c0.983-0.568,1.772-1.479,1.822-2.415l8.435,4.902c-0.05,0.936-0.839,1.847-1.822,2.415
								C207.451,300.388,206.24,300.609,205.409,300.127L205.409,300.127z"/>
						</g>
					</g>
					<g>
						<polygon style="fill:#FFBB00;" points="228.265,267.02 219.83,262.118 217.682,259.557 226.117,264.459 						"/>
					</g>
					<g>
						<polygon style="fill:#F29500;" points="226.601,275.404 226.613,279.637 225.919,280.038 219.774,283.585 219.782,286.355 
							226.074,282.723 226.085,286.63 219.793,290.262 219.801,292.933 226.64,288.984 226.652,293.243 215.843,299.483 
							215.796,282.907 215.792,281.645 						"/>
					</g>
					<g>
						<polygon style="fill:#FFBB00;" points="215.792,281.645 207.357,276.743 218.166,270.502 226.601,275.404 						"/>
					</g>
					<g>
						<polygon style="fill:#FFBB00;" points="215.796,282.907 207.361,278.005 207.357,276.743 215.792,281.645 						"/>
					</g>
					<g>
						<defs>
							<path id="SVGID_00000119097007623660635430000007379794922380629921_" d="M203.376,304.556l-8.435-4.902
								c-0.227-0.132-0.445-0.291-0.653-0.477l8.435,4.902C202.931,304.265,203.149,304.424,203.376,304.556z"/>
						</defs>
						<use xlink:href="#SVGID_00000119097007623660635430000007379794922380629921_"  style="overflow:visible;fill:#FFBB00;"/>
						<clipPath id="SVGID_00000029021360570107372840000006128466869813423497_">
							<use xlink:href="#SVGID_00000119097007623660635430000007379794922380629921_"  style="overflow:visible;"/>
						</clipPath>
						<g style="clip-path:url(#SVGID_00000029021360570107372840000006128466869813423497_);enable-background:new    ;">
							<path style="fill:#FFBB00;" d="M203.376,304.556l-8.435-4.902c-0.227-0.132-0.445-0.291-0.653-0.477l8.435,4.902
								C202.931,304.265,203.149,304.424,203.376,304.556L203.376,304.556z"/>
						</g>
					</g>
					<g>
						<polygon style="fill:#C46E00;" points="202.723,304.079 194.288,299.177 196.758,295.076 205.193,299.978 						"/>
					</g>
					<g>
						<defs>
							<path id="SVGID_00000010289907309268385700000007476537573871148975_" d="M202.668,284.228l8.435,4.902
								c0.026,0.015,0.052,0.031,0.077,0.048l-8.435-4.902C202.719,284.259,202.694,284.243,202.668,284.228z"/>
						</defs>
						<use xlink:href="#SVGID_00000010289907309268385700000007476537573871148975_"  style="overflow:visible;fill:#FFBB00;"/>
						<clipPath id="SVGID_00000077285223331466005740000000814112499625122966_">
							<use xlink:href="#SVGID_00000010289907309268385700000007476537573871148975_"  style="overflow:visible;"/>
						</clipPath>
						<g style="clip-path:url(#SVGID_00000077285223331466005740000000814112499625122966_);enable-background:new    ;">
							<path style="fill:#FFBB00;" d="M211.18,289.178l-8.435-4.902c-0.025-0.016-0.051-0.032-0.077-0.047l8.435,4.902
								C211.129,289.145,211.154,289.161,211.18,289.178L211.18,289.178z"/>
						</g>
					</g>
					<g>
						<defs>
							<path id="SVGID_00000150822588805211450440000005943267242905820077_" d="M204.54,287.093l8.435,4.902
								c-1.034-0.601-2.619-0.192-4.204,0.391l-8.435-4.902C201.921,286.901,203.506,286.492,204.54,287.093z"/>
						</defs>
						<use xlink:href="#SVGID_00000150822588805211450440000005943267242905820077_"  style="overflow:visible;fill:#FFBB00;"/>
						<clipPath id="SVGID_00000158016068375107247610000004991022493402336180_">
							<use xlink:href="#SVGID_00000150822588805211450440000005943267242905820077_"  style="overflow:visible;"/>
						</clipPath>
						<g style="clip-path:url(#SVGID_00000158016068375107247610000004991022493402336180_);">
							<path style="fill:#C46E00;" d="M208.772,292.386l-8.435-4.902c1.584-0.583,3.17-0.992,4.204-0.391l8.435,4.902
								C211.941,291.394,210.356,291.802,208.772,292.386L208.772,292.386z"/>
						</g>
					</g>
					<g>
						<defs>
							<path id="SVGID_00000105402426589235389660000005159928956345898412_" d="M207.027,292.509l-8.435-4.902
								c0.35,0.204,0.965,0.129,1.744-0.124l8.435,4.902C207.993,292.638,207.378,292.713,207.027,292.509z"/>
						</defs>
						<use xlink:href="#SVGID_00000105402426589235389660000005159928956345898412_"  style="overflow:visible;fill:#FFBB00;"/>
						<clipPath id="SVGID_00000075148465285143170890000005623481634095250311_">
							<use xlink:href="#SVGID_00000105402426589235389660000005159928956345898412_"  style="overflow:visible;"/>
						</clipPath>
						<g style="clip-path:url(#SVGID_00000075148465285143170890000005623481634095250311_);">
							<path style="fill:#C46E00;" d="M207.027,292.509l-8.435-4.902c0.35,0.204,0.965,0.129,1.744-0.124l8.435,4.902
								C207.993,292.638,207.378,292.713,207.027,292.509L207.027,292.509z"/>
						</g>
					</g>
					<g>
						<defs>
							<path id="SVGID_00000070800798111726204520000018348172366548662683_" d="M204.792,280.168l8.435,4.902
								c-0.218-0.127-0.439-0.225-0.664-0.297c-1.298-0.415-2.7,0.042-4.138,0.872l-8.435-4.902c1.438-0.83,2.84-1.288,4.139-0.872
								C204.352,279.944,204.574,280.042,204.792,280.168z"/>
						</defs>
						<use xlink:href="#SVGID_00000070800798111726204520000018348172366548662683_"  style="overflow:visible;fill:#FFBB00;"/>
						<clipPath id="SVGID_00000002365444009929607730000013153128735228784815_">
							<use xlink:href="#SVGID_00000070800798111726204520000018348172366548662683_"  style="overflow:visible;"/>
						</clipPath>
						<g style="clip-path:url(#SVGID_00000002365444009929607730000013153128735228784815_);enable-background:new    ;">
							<path style="fill:#FFBB00;" d="M208.424,285.646l-8.435-4.902c1.438-0.83,2.84-1.288,4.139-0.872
								c0.224,0.072,0.446,0.17,0.664,0.297l8.435,4.902c-0.218-0.127-0.439-0.225-0.664-0.297
								C211.265,284.358,209.862,284.815,208.424,285.646L208.424,285.646z"/>
						</g>
					</g>
					<g>
						<defs>
							<path id="SVGID_00000038399598484125643770000015000755181638688404_" d="M204.133,297.246l-8.435-4.902
								c-0.796-0.462-1.303-1.419-1.307-3.018c-0.005-1.651,0.607-3.288,1.553-4.729c1.06-1.614,2.54-2.983,4.045-3.853l8.435,4.902
								c-1.506,0.869-2.986,2.238-4.045,3.853c-0.946,1.441-1.557,3.078-1.553,4.729
								C202.831,295.827,203.338,296.784,204.133,297.246z"/>
						</defs>
						<use xlink:href="#SVGID_00000038399598484125643770000015000755181638688404_"  style="overflow:visible;fill:#FFBB00;"/>
						<clipPath id="SVGID_00000026130259449473339910000003478921392504142491_">
							<use xlink:href="#SVGID_00000038399598484125643770000015000755181638688404_"  style="overflow:visible;"/>
						</clipPath>
						<g style="clip-path:url(#SVGID_00000026130259449473339910000003478921392504142491_);">
							<path style="fill:#C46E00;" d="M204.133,297.246l-8.435-4.902c-0.796-0.462-1.303-1.419-1.307-3.018
								c-0.005-1.651,0.607-3.288,1.553-4.729c1.06-1.614,2.54-2.983,4.045-3.853l8.435,4.902c-1.506,0.869-2.986,2.238-4.045,3.853
								c-0.946,1.441-1.557,3.078-1.553,4.729C202.831,295.827,203.338,296.784,204.133,297.246L204.133,297.246z"/>
						</g>
					</g>
					<g>
						<path style="fill:#F29500;" d="M208.424,285.646c1.438-0.83,2.84-1.288,4.138-0.872c0.403,0.129,0.796,0.342,1.177,0.654
							l-2.56,3.75c-0.792-0.512-1.857-0.378-2.749,0.137c-0.943,0.544-1.692,1.513-1.723,2.595c0.047,0.83,0.86,0.866,2.064,0.475
							c2.765-1.017,5.532-1.504,5.369,2.979c-0.124,3.531-3.274,7.24-6.126,8.887c-1.863,1.075-3.839,1.132-5.291-0.174l2.47-4.101
							c0.825,0.669,2.167,0.463,3.266-0.172c0.983-0.568,1.772-1.479,1.822-2.415c0.039-1.03-1.386-0.79-2.66-0.256
							c-2.501,0.989-4.785,0.494-4.795-2.908c-0.005-1.651,0.607-3.288,1.553-4.729
							C205.439,287.884,206.919,286.515,208.424,285.646z"/>
					</g>
					<g>
						<polygon style="fill:#FFBB00;" points="200.972,291.465 192.537,286.564 192.533,285.301 200.969,290.203 						"/>
					</g>
					<g>
						<polygon style="fill:#C46E00;" points="190.691,314.005 182.256,309.103 182.237,302.375 190.672,307.277 						"/>
					</g>
					<g>
						<polygon style="fill:#C46E00;" points="197.097,310.306 188.662,305.405 188.615,288.828 197.05,293.73 						"/>
					</g>
					<g>
						<polygon style="fill:#FFBB00;" points="197.046,292.468 188.611,287.566 192.533,285.301 200.968,290.203 						"/>
					</g>
					<g>
						<polygon style="fill:#FFBB00;" points="197.05,293.73 188.615,288.828 188.611,287.566 197.046,292.468 						"/>
					</g>
					<g>
						<polygon style="fill:#F29500;" points="200.968,290.203 200.972,291.465 201.019,308.042 197.097,310.306 197.05,293.73 
							197.046,292.468 						"/>
					</g>
					<g>
						<polygon style="fill:#FFBB00;" points="194.592,295.149 186.157,290.247 186.153,288.985 194.588,293.887 						"/>
					</g>
					<g>
						<polygon style="fill:#C46E00;" points="186.189,305.497 177.754,300.595 182.224,298.014 190.659,302.916 						"/>
					</g>
					<g>
						<polygon style="fill:#C46E00;" points="190.659,302.916 182.224,298.014 182.209,292.526 190.644,297.428 						"/>
					</g>
					<g>
						<polygon style="fill:#FFBB00;" points="190.644,297.428 182.209,292.526 182.205,291.264 190.64,296.166 						"/>
					</g>
					<g>
						<polygon style="fill:#FFBB00;" points="190.64,296.166 182.205,291.264 186.153,288.985 194.588,293.887 						"/>
					</g>
					<g>
						<polygon style="fill:#C46E00;" points="182.273,318.865 173.838,313.963 173.791,297.387 182.226,302.289 						"/>
					</g>
					<g>
						<polygon style="fill:#C46E00;" points="177.411,316.095 168.976,311.193 172.401,311.029 180.836,315.931 						"/>
					</g>
					<g>
						<polygon style="fill:#FFBB00;" points="186.174,300.009 177.739,295.107 177.735,293.845 186.17,298.747 						"/>
					</g>
					<g>
						<defs>
							<path id="SVGID_00000160167163402881567790000011472591543735438768_" d="M173.469,319.24l-8.435-4.902
								c0.408,0.237,1.058,0.126,1.723-0.258c0.904-0.522,1.834-1.547,2.219-2.887l8.435,4.902
								c-0.385,1.341-1.315,2.366-2.219,2.887C174.527,319.366,173.877,319.477,173.469,319.24z"/>
						</defs>
						<use xlink:href="#SVGID_00000160167163402881567790000011472591543735438768_"  style="overflow:visible;fill:#FFBB00;"/>
						<clipPath id="SVGID_00000121978881942555313160000005974053427413446821_">
							<use xlink:href="#SVGID_00000160167163402881567790000011472591543735438768_"  style="overflow:visible;"/>
						</clipPath>
						<g style="clip-path:url(#SVGID_00000121978881942555313160000005974053427413446821_);">
							<path style="fill:#C46E00;" d="M173.469,319.24l-8.435-4.902c0.408,0.237,1.058,0.126,1.723-0.258
								c0.904-0.522,1.834-1.547,2.219-2.887l8.435,4.902c-0.385,1.341-1.315,2.366-2.219,2.887
								C174.527,319.366,173.877,319.477,173.469,319.24L173.469,319.24z"/>
						</g>
					</g>
					<g>
						<polygon style="fill:#F29500;" points="194.588,293.887 194.592,295.149 194.639,311.726 190.691,314.005 190.672,307.277 
							186.202,309.858 186.221,316.586 182.273,318.865 182.226,302.289 182.222,301.026 186.17,298.747 186.174,300.009 
							186.189,305.497 190.659,302.916 190.644,297.428 190.64,296.166 						"/>
					</g>
					<g>
						<polygon style="fill:#FFBB00;" points="182.222,301.026 173.787,296.125 177.735,293.845 186.17,298.747 						"/>
					</g>
					<g>
						<polygon style="fill:#FFBB00;" points="182.226,302.289 173.791,297.387 173.787,296.125 182.222,301.026 						"/>
					</g>
					<g>
						<defs>
							<path id="SVGID_00000163032652111856371100000011427801263690151568_" d="M168.74,303.82l8.435,4.902
								c0.142,0.083,0.267,0.2,0.37,0.355l-8.435-4.902C169.007,304.02,168.882,303.903,168.74,303.82z"/>
						</defs>
						<use xlink:href="#SVGID_00000163032652111856371100000011427801263690151568_"  style="overflow:visible;fill:#FFBB00;"/>
						<clipPath id="SVGID_00000056420177327338309110000006076353800259172025_">
							<use xlink:href="#SVGID_00000163032652111856371100000011427801263690151568_"  style="overflow:visible;"/>
						</clipPath>
						<g style="clip-path:url(#SVGID_00000056420177327338309110000006076353800259172025_);enable-background:new    ;">
							<path style="fill:#FFBB00;" d="M177.544,309.077l-8.435-4.902c-0.103-0.156-0.228-0.273-0.37-0.355l8.435,4.902
								C177.317,308.805,177.442,308.922,177.544,309.077L177.544,309.077z"/>
						</g>
					</g>
					<g>
						<defs>
							<path id="SVGID_00000167357778237937160680000018244579085951684779_" d="M170.529,323.837l-8.435-4.902
								c-0.856-0.497-1.401-1.533-1.406-3.236l8.435,4.902C169.128,322.305,169.673,323.34,170.529,323.837z"/>
						</defs>
						<use xlink:href="#SVGID_00000167357778237937160680000018244579085951684779_"  style="overflow:visible;fill:#FFBB00;"/>
						<clipPath id="SVGID_00000156587743599508513420000002258271435520954523_">
							<use xlink:href="#SVGID_00000167357778237937160680000018244579085951684779_"  style="overflow:visible;"/>
						</clipPath>
						<g style="clip-path:url(#SVGID_00000156587743599508513420000002258271435520954523_);">
							<path style="fill:#C46E00;" d="M170.529,323.837l-8.435-4.902c-0.856-0.497-1.401-1.533-1.406-3.236l8.435,4.902
								C169.128,322.305,169.673,323.34,170.529,323.837L170.529,323.837z"/>
						</g>
					</g>
					<g>
						<defs>
							<path id="SVGID_00000166638628552344626460000018085130738329916578_" d="M171.016,299.392l8.435,4.902
								c-0.124-0.072-0.251-0.133-0.381-0.183c-1.173-0.451-2.568-0.034-3.798,0.676l-8.435-4.902
								c1.23-0.71,2.625-1.127,3.798-0.676C170.764,299.259,170.892,299.32,171.016,299.392z"/>
						</defs>
						<use xlink:href="#SVGID_00000166638628552344626460000018085130738329916578_"  style="overflow:visible;fill:#FFBB00;"/>
						<clipPath id="SVGID_00000005981991968384053310000001695726980869431201_">
							<use xlink:href="#SVGID_00000166638628552344626460000018085130738329916578_"  style="overflow:visible;"/>
						</clipPath>
						<g style="clip-path:url(#SVGID_00000005981991968384053310000001695726980869431201_);enable-background:new    ;">
							<path style="fill:#FFBB00;" d="M175.271,304.787l-8.435-4.902c1.23-0.71,2.625-1.127,3.798-0.676
								c0.13,0.05,0.257,0.111,0.381,0.183l8.435,4.902c-0.124-0.072-0.251-0.133-0.381-0.183
								C177.896,303.66,176.501,304.077,175.271,304.787L175.271,304.787z"/>
						</g>
					</g>
					<g>
						<polygon style="fill:#C46E00;" points="169.123,320.601 160.688,315.699 160.671,309.55 169.105,314.452 						"/>
					</g>
					<g>
						<polygon style="fill:#FFBB00;" points="163.46,323.061 155.025,318.159 155.136,318.073 163.571,322.975 						"/>
					</g>
					<g>
						<path style="fill:#F29500;" d="M175.271,304.787c1.23-0.71,2.625-1.127,3.798-0.676c0.646,0.248,1.224,0.759,1.671,1.63
							l-3.195,3.336c-0.471-0.714-1.416-0.618-2.32-0.096c-1.132,0.653-2.2,1.973-2.196,3.206l0.018,6.15
							c0.003,1.171,1.056,1.275,2.147,0.645c0.904-0.522,1.834-1.547,2.219-2.887l3.425-0.163c-1.284,3.644-3.628,6.107-5.579,7.234
							c-3.047,1.759-6.122,1.493-6.133-2.564l-0.017-6.15c-0.006-2.029,0.769-4.01,1.937-5.706
							C172.193,307.074,173.726,305.679,175.271,304.787z"/>
					</g>
					<g>
						<defs>
							<path id="SVGID_00000108275431546385617080000007967601181060089520_" d="M169.105,314.452l-8.435-4.902
								c-0.006-2.029,0.769-4.01,1.937-5.706c1.151-1.672,2.684-3.066,4.229-3.959l8.435,4.902
								c-1.545,0.892-3.078,2.287-4.229,3.959C169.874,310.442,169.1,312.423,169.105,314.452z"/>
						</defs>
						<use xlink:href="#SVGID_00000108275431546385617080000007967601181060089520_"  style="overflow:visible;fill:#FFBB00;"/>
						<clipPath id="SVGID_00000050627813439616272210000002791201314823011743_">
							<use xlink:href="#SVGID_00000108275431546385617080000007967601181060089520_"  style="overflow:visible;"/>
						</clipPath>
						<g style="clip-path:url(#SVGID_00000050627813439616272210000002791201314823011743_);">
							<path style="fill:#C46E00;" d="M169.105,314.452l-8.435-4.902c-0.006-2.029,0.769-4.01,1.937-5.706
								c1.151-1.672,2.684-3.066,4.229-3.959l8.435,4.902c-1.545,0.892-3.078,2.287-4.229,3.959
								C169.874,310.442,169.1,312.423,169.105,314.452L169.105,314.452z"/>
						</g>
					</g>
					<g>
						<polygon style="fill:#C46E00;" points="163.571,322.975 155.136,318.073 154.688,315.25 163.123,320.152 						"/>
					</g>
					<g>
						<polygon style="fill:#C46E00;" points="163.087,329.942 154.652,325.04 151.124,320.034 159.559,324.936 						"/>
					</g>
					<g>
						<polygon style="fill:#FFBB00;" points="167.007,311.075 158.572,306.173 158.568,304.911 167.003,309.813 						"/>
					</g>
					<g>
						<polygon style="fill:#C46E00;" points="159.559,324.936 151.124,320.034 149.754,317.241 158.189,322.143 						"/>
					</g>
					<g>
						<polygon style="fill:#C46E00;" points="163.123,320.152 154.688,315.25 154.669,308.427 163.104,313.329 						"/>
					</g>
					<g>
						<polygon style="fill:#FFBB00;" points="163.104,313.329 154.669,308.427 154.665,307.165 163.1,312.066 						"/>
					</g>
					<g>
						<polygon style="fill:#FFBB00;" points="163.1,312.066 154.665,307.165 158.568,304.911 167.003,309.813 						"/>
					</g>
					<g>
						<polygon style="fill:#C46E00;" points="149.448,337.816 141.013,332.915 139.993,329.919 148.428,334.821 						"/>
					</g>
					<g>
						<polygon style="fill:#FFBB00;" points="158.992,315.703 150.557,310.801 149.931,309.898 158.366,314.8 						"/>
					</g>
					<g>
						<polygon style="fill:#C46E00;" points="154.688,334.791 146.253,329.889 146.206,313.313 154.641,318.215 						"/>
					</g>
					<g>
						<polygon style="fill:#F29500;" points="167.003,309.813 167.007,311.075 167.054,327.651 163.087,329.942 159.559,324.936 
							158.189,322.143 158.078,322.233 158.594,325.394 158.614,332.525 154.688,334.791 154.641,318.215 154.638,316.952 
							158.366,314.8 158.991,315.703 162.135,320.242 163.46,323.061 163.571,322.975 163.123,320.152 163.104,313.329 
							163.1,312.066 						"/>
					</g>
					<g>
						<polygon style="fill:#FFBB00;" points="154.638,316.952 146.203,312.05 149.931,309.898 158.366,314.8 						"/>
					</g>
					<g>
						<polygon style="fill:#FFBB00;" points="154.641,318.215 146.206,313.313 146.203,312.05 154.638,316.952 						"/>
					</g>
					<g>
						<polygon style="fill:#FFBB00;" points="139.119,343.78 130.684,338.878 130.79,338.464 139.225,343.366 						"/>
					</g>
					<g>
						<polygon style="fill:#C46E00;" points="145.15,332.701 136.715,327.799 139.04,326.457 147.475,331.359 						"/>
					</g>
					<g>
						<polygon style="fill:#C46E00;" points="147.475,331.359 139.04,326.457 137.949,321.862 146.384,326.764 						"/>
					</g>
					<g>
						<polygon style="fill:#FFBB00;" points="148.456,321.786 140.021,316.884 139.625,315.848 148.06,320.75 						"/>
					</g>
					<g>
						<polygon style="fill:#C46E00;" points="139.225,343.366 130.79,338.464 135.67,319.396 144.105,324.298 						"/>
					</g>
					<g>
						<polygon style="fill:#FFBB00;" points="144.105,324.298 135.67,319.396 136.05,317.912 144.484,322.814 						"/>
					</g>
					<g>
						<polygon style="fill:#FFBB00;" points="144.484,322.814 136.05,317.912 139.625,315.848 148.06,320.75 						"/>
					</g>
					<g>
						<path style="fill:#F29500;" d="M148.456,321.786l5.201,13.601l-4.209,2.43l-1.019-2.995l-4.145,2.393l-0.955,4.135
							l-3.859,2.228l-0.35,0.202l0.106-0.414l4.88-19.068l0.38-1.483l3.575-2.064L148.456,321.786z M145.15,332.701l2.324-1.342
							l-1.091-4.596l-0.108,0.063L145.15,332.701L145.15,332.701z"/>
					</g>
					<g>
						<polygon style="fill:#C46E00;" points="134.579,346.401 126.144,341.499 122.534,337.904 130.969,342.806 						"/>
					</g>
					<g>
						<defs>
							<path id="SVGID_00000041985041639829808690000004223947579035070608_" d="M125.472,328.831l8.435,4.902
								c0.979,0.569,0.532,3.182-1.351,4.269l-8.435-4.902C126.004,332.012,126.451,329.4,125.472,328.831z"/>
						</defs>
						<use xlink:href="#SVGID_00000041985041639829808690000004223947579035070608_"  style="overflow:visible;fill:#FFBB00;"/>
						<clipPath id="SVGID_00000047058801158666471680000017818807811257874873_">
							<use xlink:href="#SVGID_00000041985041639829808690000004223947579035070608_"  style="overflow:visible;"/>
						</clipPath>
						<g style="clip-path:url(#SVGID_00000047058801158666471680000017818807811257874873_);">
							<path style="fill:#C46E00;" d="M132.556,338.001l-8.435-4.902c1.883-1.087,2.33-3.7,1.351-4.269l8.435,4.902
								C134.886,334.301,134.439,336.914,132.556,338.001L132.556,338.001z"/>
						</g>
					</g>
					<g>
						<polygon style="fill:#C46E00;" points="130.254,339.33 121.819,334.428 124.121,333.099 132.556,338.001 						"/>
					</g>
					<g>
						<defs>
							<path id="SVGID_00000051358552323469451820000011008143253662884281_" d="M128.459,324.046l8.435,4.902
								c-0.153-0.089-0.316-0.157-0.49-0.205c-1.022-0.283-2.396,0.119-3.936,1.008l-8.435-4.902
								c1.54-0.889,2.914-1.291,3.936-1.008C128.143,323.89,128.307,323.958,128.459,324.046z"/>
						</defs>
						<use xlink:href="#SVGID_00000051358552323469451820000011008143253662884281_"  style="overflow:visible;fill:#FFBB00;"/>
						<clipPath id="SVGID_00000094598183881537106480000003916283193987000723_">
							<use xlink:href="#SVGID_00000051358552323469451820000011008143253662884281_"  style="overflow:visible;"/>
						</clipPath>
						<g style="clip-path:url(#SVGID_00000094598183881537106480000003916283193987000723_);enable-background:new    ;">
							<path style="fill:#FFBB00;" d="M132.469,329.751l-8.435-4.902c1.54-0.889,2.914-1.291,3.936-1.008
								c0.174,0.048,0.337,0.116,0.49,0.205l8.435,4.902c-0.153-0.089-0.316-0.157-0.49-0.205
								C135.382,328.461,134.009,328.862,132.469,329.751L132.469,329.751z"/>
						</g>
					</g>
					<g>
						<polygon style="fill:#C46E00;" points="126.314,351.173 117.879,346.271 117.832,329.694 126.267,334.596 						"/>
					</g>
					<g>
						<path style="fill:#F29500;" d="M135.221,339.896l4.004,3.47l-0.106,0.414l-4.54,2.621l-3.611-3.595l-0.704,0.406l0.016,5.671
							l-3.967,2.29l-0.047-16.576l-0.003-1.262l6.205-3.583c1.54-0.889,2.913-1.291,3.936-1.008
							c1.102,0.305,1.794,1.405,1.847,3.547C138.261,335.591,137.104,338.127,135.221,339.896z M132.556,338.001
							c2.48-1.432,2.469-5.511-0.011-4.079l-2.302,1.329l0.012,4.079L132.556,338.001L132.556,338.001z"/>
					</g>
					<g>
						<polygon style="fill:#FFBB00;" points="126.267,334.596 117.832,329.694 117.829,328.432 126.264,333.334 						"/>
					</g>
					<g>
						<polygon style="fill:#FFBB00;" points="126.264,333.334 117.829,328.432 124.034,324.85 132.469,329.751 						"/>
					</g>
					<g>
						<polygon style="fill:#C46E00;" points="113.684,358.465 105.249,353.563 105.237,349.337 113.672,354.239 						"/>
					</g>
					<g>
						<polygon style="fill:#FFBB00;" points="113.672,354.239 105.237,349.337 105.743,349.045 114.178,353.947 						"/>
					</g>
					<g>
						<polygon style="fill:#FFBB00;" points="124.446,335.648 116.011,330.746 116.007,329.484 124.442,334.385 						"/>
					</g>
					<g>
						<polygon style="fill:#C46E00;" points="117.622,345.817 109.187,340.915 115.172,337.46 123.607,342.362 						"/>
					</g>
					<g>
						<polygon style="fill:#FFBB00;" points="114.14,340.334 105.705,335.432 116.007,329.484 124.442,334.385 						"/>
					</g>
					<g>
						<polygon style="fill:#FFBB00;" points="114.178,353.947 105.743,349.045 105.705,335.432 114.14,340.334 						"/>
					</g>
					<g>
						<polygon style="fill:#F29500;" points="124.442,334.385 124.446,335.648 124.455,338.666 117.613,342.616 117.622,345.817 
							123.607,342.362 123.619,346.569 117.633,350.025 117.651,356.174 113.684,358.465 113.672,354.239 114.178,353.947 
							114.14,340.334 						"/>
					</g>
					<g>
						<polygon style="fill:#FFBB00;" points="119.069,330.064 110.634,325.162 219.83,262.118 228.265,267.02 						"/>
					</g>
					<g>
						<polygon style="fill:#C46E00;" points="226.117,264.459 228.265,267.02 119.069,330.064 119.059,326.27 						"/>
					</g>
					<g>
						<polygon style="fill:#FFBB00;" points="119.069,330.064 110.634,325.162 110.624,321.368 119.059,326.27 						"/>
					</g>
					<g>
						<polygon style="fill:#FFBB00;" points="119.059,326.27 110.624,321.368 217.682,259.557 226.117,264.459 						"/>
					</g>
					<g>
						<polygon style="fill:#FFBB00;" points="120.941,323.318 112.506,318.416 112.495,314.454 120.93,319.355 						"/>
					</g>
					<g>
						<polygon style="fill:#FFBB00;" points="120.93,319.355 112.495,314.454 220.697,251.983 229.132,256.885 						"/>
					</g>
					<g>
						<polygon style="fill:#FFBB00;" points="114.14,340.334 105.705,335.432 105.668,322.364 114.103,327.266 						"/>
					</g>
					<g>
						<polygon style="fill:#FFBB00;" points="114.103,327.266 105.668,322.364 112.506,318.416 120.941,323.318 						"/>
					</g>
					<g>
						<path style="fill:#F29500;" d="M229.132,256.885l7.052,9.348l-3.709,10.024l-6.555,3.785l0.694-0.404l-0.012-4.233
							l-10.809,6.241l0.004,1.262l-3.233,1.867c-1.298-0.415-2.7,0.042-4.139,0.872c-1.506,0.869-2.986,2.238-4.045,3.853
							l-3.407,1.967l-0.004-1.262l-3.922,2.265l0.004,1.262l-2.458,1.419l-0.004-1.262l-3.948,2.279l0.004,1.262l-4.47,2.581
							l-0.004-1.262l-3.948,2.279l0.004,1.262l-3.156,1.822c-1.173-0.451-2.568-0.034-3.798,0.676
							c-1.546,0.892-3.078,2.287-4.229,3.959l-4.035,2.33l-0.004-1.262l-3.903,2.254l0.004,1.262l-4.112,2.374l-0.626-0.903
							l-3.728,2.152l0.004,1.262l-6.185,3.571l-0.396-1.036l-3.575,2.064l-0.38,1.483l-7.701,4.446
							c-1.022-0.283-2.396,0.119-3.936,1.008l-6.205,3.583l0.003,1.262l-1.821,1.052l-0.004-1.262l-10.303,5.948l-0.037-13.068
							l6.839-3.948l-0.011-3.962L229.132,256.885z M119.069,330.064l109.195-63.044l-2.147-2.56L119.059,326.27L119.069,330.064
							L119.069,330.064z"/>
					</g>
					<g>
						<polygon style="fill:#FFBB00;" points="111.317,328.874 102.882,323.973 105.668,322.364 114.103,327.266 						"/>
					</g>
					<g>
						<polygon style="fill:#FFBB00;" points="114.081,319.748 105.646,314.846 112.485,310.898 120.92,315.799 						"/>
					</g>
					<g>
						<polygon style="fill:#FFBB00;" points="111.296,321.356 102.86,316.454 105.646,314.846 114.081,319.748 						"/>
					</g>
					<g>
						<polygon style="fill:#FFBB00;" points="111.317,328.874 102.882,323.973 102.86,316.454 111.296,321.356 						"/>
					</g>
					<g>
						<polygon style="fill:#F29500;" points="120.92,315.799 120.93,319.355 120.941,323.318 114.103,327.266 111.317,328.874 
							111.296,321.356 114.081,319.748 						"/>
					</g>
					<g>
						<polygon style="fill:#F29500;" points="114.073,316.777 114.081,319.748 111.296,321.356 111.317,328.874 114.103,327.266 
							114.14,340.334 114.178,353.947 113.672,354.239 111.393,355.555 111.287,318.386 						"/>
					</g>
					<g>
						<polygon style="fill:#C46E00;" points="111.393,355.555 102.957,350.654 102.852,313.484 111.287,318.386 						"/>
					</g>
					<g>
						<polygon style="fill:#FFBB00;" points="111.287,318.386 102.852,313.484 105.638,311.875 114.073,316.777 						"/>
					</g>
				</g>
			</g>
			<g>
				<g style="enable-background:new    ;">
					<g style="enable-background:new    ;">
						<defs>
							<path id="SVGID_00000133495301233517231870000004744691476131184545_" style="enable-background:new    ;" d="
								M69.364,371.248l-17.573-10.212c0.739,0.429,1.761,0.371,2.886-0.278L72.25,370.97
								C71.125,371.619,70.103,371.677,69.364,371.248z"/>
						</defs>
						<clipPath id="SVGID_00000096779864916416507610000006278462680479310252_">
							<use xlink:href="#SVGID_00000133495301233517231870000004744691476131184545_"  style="overflow:visible;"/>
						</clipPath>
						<path style="clip-path:url(#SVGID_00000096779864916416507610000006278462680479310252_);fill:#5B5F73;" d="M69.364,371.248
							l-17.573-10.212c0.089,0.052,0.181,0.096,0.278,0.133l17.573,10.212C69.545,371.344,69.452,371.299,69.364,371.248
							L69.364,371.248z"/>
					</g>
					<g style="enable-background:new    ;">
						<defs>
							<path id="SVGID_00000119088473616490857070000009810841202227786143_" style="enable-background:new    ;" d="
								M58.568,335.065l17.573,10.212c0.73,0.424,1.184,1.324,1.187,2.598l-17.573-10.212
								C59.752,336.389,59.298,335.49,58.568,335.065z"/>
						</defs>
						<clipPath id="SVGID_00000054959059167891587300000005844865313894539188_">
							<use xlink:href="#SVGID_00000119088473616490857070000009810841202227786143_"  style="overflow:visible;"/>
						</clipPath>
					</g>
					<g>
						
							<linearGradient id="SVGID_00000172422021764441193960000013478273230805973951_" gradientUnits="userSpaceOnUse" x1="102.8197" y1="382.7749" x2="66.5578" y2="319.9674">
							<stop  offset="0.1561" style="stop-color:#343954"/>
							<stop  offset="0.617" style="stop-color:#393E5C"/>
							<stop  offset="0.7884" style="stop-color:#3C4160"/>
							<stop  offset="0.9762" style="stop-color:#464B6F"/>
						</linearGradient>
						<path style="fill:url(#SVGID_00000172422021764441193960000013478273230805973951_);" d="M93.087,304.651
							c9.822-5.671,17.881-1.075,17.913,10.208l0.121,42.573c0.032,11.286-7.975,25.154-17.797,30.825l-17.033,9.834
							c-9.819,5.669-17.881,1.078-17.913-10.208l-0.121-42.573c-0.032-11.283,7.978-25.156,17.797-30.825L93.087,304.651z
							 M77.372,363.34l-0.044-15.464c-0.007-2.564-1.838-3.611-4.073-2.321l-1.076,0.621c-2.235,1.29-4.053,4.444-4.046,7.008
							l0.044,15.464c0.007,2.568,1.838,3.611,4.073,2.321l1.076-0.621C75.561,369.058,77.379,365.908,77.372,363.34L77.372,363.34z"
							/>
						<path style="fill:#4C527A;" d="M71.019,398.746c-4.302,0-6.88-3.59-6.898-9.603l-0.12-42.573
							c-0.03-10.165,7.423-23.07,16.274-28.18l17.034-9.834c2.291-1.324,4.521-2.023,6.448-2.023c4.301,0,6.88,3.59,6.898,9.603
							l0.12,42.572c0.03,10.165-7.423,23.07-16.274,28.18l-17.034,9.834C75.176,398.046,72.946,398.746,71.019,398.746z
							 M77.768,343.226c-1.109,0-2.231,0.323-3.335,0.961l-1.076,0.621c-3.185,1.839-5.579,5.99-5.568,9.654l0.044,15.463
							c0.009,3.425,2.239,5.911,5.302,5.911l0,0c1.109,0,2.232-0.324,3.337-0.961l1.076-0.622c3.184-1.839,5.579-5.989,5.569-9.653
							l-0.045-15.465C83.063,345.712,80.832,343.226,77.768,343.226z"/>
					</g>
					
						<linearGradient id="SVGID_00000026152434844032276950000015900595293006761091_" gradientUnits="userSpaceOnUse" x1="39.2652" y1="385.2589" x2="91.3536" y2="295.0391">
						<stop  offset="0.3307" style="stop-color:#343954"/>
						<stop  offset="0.429" style="stop-color:#363B58"/>
						<stop  offset="0.5166" style="stop-color:#3D4262"/>
						<stop  offset="0.5608" style="stop-color:#43486B"/>
						<stop  offset="0.7169" style="stop-color:#4C527A"/>
					</linearGradient>
					<path style="fill:url(#SVGID_00000026152434844032276950000015900595293006761091_);" d="M96.146,303.195
						c0.084-0.032,0.168-0.063,0.252-0.093c0.449-0.161,0.892-0.302,1.328-0.418c0.07-0.019,0.139-0.034,0.209-0.052
						c0.452-0.113,0.899-0.209,1.336-0.274c0.016-0.003,0.032-0.004,0.049-0.006c0.433-0.063,0.856-0.099,1.272-0.116
						c0.054-0.002,0.109-0.007,0.163-0.009c0.405-0.011,0.8,0.004,1.188,0.036c0.071,0.006,0.142,0.012,0.213,0.019
						c0.38,0.04,0.752,0.099,1.114,0.18c0.061,0.014,0.121,0.03,0.181,0.045c0.371,0.091,0.734,0.198,1.083,0.332
						c0.02,0.008,0.04,0.018,0.06,0.026c0.409,0.161,0.805,0.348,1.182,0.567l0.001,0l0,0l0,0l-17.573-10.212
						c-0.377-0.219-0.772-0.406-1.182-0.567c-0.015-0.006-0.028-0.015-0.043-0.021c-0.006-0.002-0.013-0.003-0.019-0.006
						c-0.349-0.134-0.711-0.241-1.081-0.332c-0.061-0.015-0.121-0.031-0.183-0.045c-0.362-0.081-0.733-0.14-1.114-0.18
						c-0.07-0.007-0.141-0.013-0.212-0.019c-0.388-0.032-0.783-0.047-1.188-0.036c-0.054,0.001-0.109,0.006-0.163,0.009
						c-0.417,0.017-0.84,0.053-1.273,0.116c-0.016,0.002-0.032,0.003-0.049,0.006c-0.438,0.066-0.885,0.161-1.338,0.275
						c-0.069,0.017-0.137,0.033-0.206,0.051c-0.437,0.116-0.88,0.257-1.329,0.418c-0.084,0.03-0.168,0.061-0.252,0.093
						c-0.453,0.171-0.91,0.361-1.373,0.578c-0.069,0.032-0.138,0.068-0.206,0.101c-0.489,0.235-0.981,0.49-1.48,0.778l-17.033,9.834
						c-0.623,0.36-1.239,0.754-1.846,1.177c-0.201,0.14-0.395,0.302-0.594,0.448c-0.402,0.296-0.804,0.588-1.197,0.909
						c-0.235,0.193-0.462,0.406-0.694,0.608c-0.347,0.301-0.697,0.596-1.035,0.916c-0.242,0.228-0.474,0.475-0.711,0.712
						c-0.317,0.317-0.637,0.627-0.945,0.959c-0.239,0.257-0.467,0.53-0.701,0.795c-0.294,0.333-0.59,0.662-0.874,1.008
						c-0.231,0.281-0.45,0.574-0.674,0.863c-0.272,0.349-0.546,0.695-0.808,1.055c-0.22,0.301-0.427,0.613-0.639,0.921
						c-0.25,0.363-0.503,0.724-0.742,1.095c-0.205,0.318-0.398,0.644-0.595,0.967c-0.229,0.376-0.459,0.749-0.676,1.131
						c-0.046,0.081-0.098,0.159-0.144,0.241c-0.16,0.285-0.302,0.578-0.455,0.867c-0.174,0.327-0.351,0.651-0.516,0.982
						c-0.19,0.381-0.365,0.766-0.543,1.151c-0.153,0.332-0.312,0.662-0.457,0.996c-0.169,0.392-0.321,0.786-0.477,1.181
						c-0.132,0.332-0.27,0.663-0.392,0.997c-0.147,0.404-0.275,0.809-0.408,1.214c-0.108,0.328-0.223,0.654-0.321,0.982
						c-0.125,0.417-0.226,0.833-0.335,1.25c-0.082,0.316-0.174,0.632-0.247,0.947c-0.101,0.438-0.176,0.873-0.258,1.309
						c-0.055,0.292-0.122,0.585-0.168,0.875c-0.076,0.482-0.123,0.957-0.174,1.434c-0.026,0.24-0.066,0.483-0.085,0.722
						c-0.057,0.712-0.087,1.417-0.085,2.113l0.121,42.573c0.016,5.606,2.013,9.56,5.223,11.426L63.6,399.309
						c-3.21-1.865-5.207-5.819-5.223-11.426l-0.121-42.573c-0.002-0.695,0.028-1.4,0.086-2.112c0.019-0.24,0.06-0.486,0.086-0.728
						c0.051-0.474,0.098-0.948,0.174-1.428c0.046-0.293,0.114-0.589,0.169-0.883c0.081-0.433,0.156-0.866,0.256-1.301
						c0.072-0.314,0.164-0.629,0.246-0.943c0.109-0.418,0.211-0.836,0.336-1.255c0.097-0.326,0.213-0.651,0.32-0.977
						c0.134-0.407,0.262-0.813,0.41-1.219c0.121-0.332,0.259-0.661,0.389-0.991c0.157-0.397,0.31-0.794,0.48-1.188
						c0.143-0.332,0.301-0.66,0.454-0.99c0.179-0.386,0.354-0.774,0.545-1.156c0.165-0.33,0.342-0.654,0.515-0.98
						c0.197-0.371,0.393-0.744,0.601-1.109c0.216-0.381,0.446-0.753,0.674-1.127c0.198-0.325,0.391-0.653,0.597-0.972
						c0.239-0.37,0.491-0.73,0.74-1.092c0.213-0.309,0.421-0.621,0.641-0.924c0.261-0.359,0.535-0.704,0.807-1.053
						c0.225-0.289,0.445-0.584,0.676-0.865c0.283-0.345,0.579-0.673,0.871-1.005c0.234-0.266,0.463-0.54,0.703-0.798
						c0.308-0.331,0.627-0.641,0.943-0.957c0.238-0.238,0.471-0.486,0.714-0.715c0.338-0.319,0.687-0.613,1.033-0.913
						c0.233-0.202,0.46-0.416,0.696-0.609c0.393-0.321,0.795-0.613,1.197-0.909c0.199-0.147,0.393-0.308,0.594-0.448
						c0.607-0.423,1.223-0.817,1.846-1.177l17.033-9.834c0.499-0.288,0.991-0.542,1.48-0.777c0.069-0.033,0.138-0.069,0.206-0.101
						C95.236,303.556,95.694,303.365,96.146,303.195z"/>
				</g>
			</g>
		</g>
	</g>
	<path style="fill:#DEDEDE;" d="M228.405,340.073l-0.503-0.291c-3.044-1.758-7.964-1.758-10.989,0l-107.687,62.581l-3.622-2.091
		c-3.045-1.758-7.964-1.758-10.989,0l-51.054,29.669c-3.025,1.758-3.009,4.607,0.036,6.365l20.51,11.841
		c3.045,1.758,7.964,1.758,10.989,0l50.485-29.339c3.338-1.94,3.321-5.086-0.041-7.026l-4.214-2.433l107.118-62.251
		C231.784,345.159,231.766,342.013,228.405,340.073z"/>
	<g>
		<g>
			<path style="fill:#B4B8BC;" d="M288.529,159.229c0.37-0.087,0.729-0.192,1.088-0.298
				C289.26,159.04,288.898,159.139,288.529,159.229z"/>
			<path style="fill:#C9C9C9;" d="M273.111,157.46c3.647,2.099,8.773,2.816,13.45,2.144c2.457-0.346,4.773-1.081,6.699-2.188
				c0.518-0.301,0.985-0.608,1.408-0.941v-0.013c0.185-0.134,0.352-0.275,0.518-0.422c1.51-1.344,2.265-2.879,2.284-4.421v-0.051
				c0-2.092-1.382-4.191-4.146-5.784c-1.926-1.12-4.281-1.843-6.763-2.176c-4.652-0.621-9.752,0.115-13.386,2.214
				C267.595,149.039,267.563,154.248,273.111,157.46z"/>
		</g>
		<path style="fill:#C9C9C9;" d="M328.542,118.52c3.613,2.084,8.695,2.792,13.336,2.125c2.433-0.339,4.733-1.068,6.642-2.166
			c0.513-0.297,0.975-0.606,1.396-0.934v-0.01c0.185-0.134,0.349-0.277,0.514-0.421c1.498-1.335,2.248-2.854,2.269-4.384v-0.051
			c0-2.074-1.376-4.158-4.117-5.739c-1.91-1.109-4.24-1.827-6.704-2.156c-4.61-0.615-9.671,0.113-13.274,2.197
			C323.069,110.173,323.039,115.337,328.542,118.52z"/>
		<path style="fill:#C9C9C9;" d="M324.442,125.424h28.256v16.613h-0.145c0.021,2.071-1.325,4.152-4.069,5.736
			c-5.456,3.137-14.308,3.127-19.785-0.042c-2.744-1.563-4.11-3.644-4.131-5.694h-0.134v-16.613H324.442z"/>
		<path style="fill:#B4B8BC;" d="M324.442,125.424c0.103,1.987,1.469,3.953,4.098,5.474c5.505,3.177,14.457,3.166,19.993-0.032
			c2.628-1.51,4.005-3.467,4.15-5.443c0.145-1.811-0.755-3.633-2.691-5.153c-0.414-0.332-0.88-0.642-1.397-0.942
			c-0.269-0.166-0.559-0.3-0.849-0.445c-5.278,2.639-13.091,2.659-18.358,0.073c-0.269,0.124-0.539,0.259-0.786,0.403
			c-0.58,0.331-1.108,0.694-1.563,1.076C325.207,121.915,324.338,123.674,324.442,125.424z"/>
		<path style="fill:#A7ABB0;" d="M328.542,118.52c3.613,2.084,8.695,2.792,13.336,2.125c2.433-0.339,4.733-1.068,6.642-2.166
			c0.486-0.282,0.923-0.575,1.326-0.884v3.964h-0.133c0.016,1.667-1.067,3.334-3.277,4.601c-1.484,0.859-3.284,1.425-5.201,1.701
			c-3.71,0.534-7.811-0.034-10.729-1.717c-2.184-1.283-3.301-2.934-3.318-4.584h-0.116v-4.054
			C327.511,117.859,327.991,118.201,328.542,118.52z"/>
		<path style="fill:#C9C9C9;" d="M283.3,29.16c8.842-4.929,19.671-4.67,28.264,0.663l18.325,11.366
			c14.288,8.873,22.809,24.195,22.809,40.999v30.542h-28.256l-0.008,0.008v-30.55c0-6.947-3.551-13.303-9.463-16.968l-17.714-10.994
			v97.395h-28.285V53.521C268.971,43.406,274.468,34.067,283.3,29.16z"/>
		<path style="fill:#B4B8BC;" d="M286.561,61.139v98.465c2.457-0.346,4.773-1.081,6.699-2.188c0.518-0.301,0.985-0.608,1.408-0.941
			v-0.013c0.051-0.217,0.237-0.352,0.518-0.422c1.51-1.344,2.265-2.879,2.284-4.421v-0.051l-0.217-97.339
			C297.253,54.228,286.561,49.813,286.561,61.139z"/>
	</g>
</g>
</svg>
